<?xml version="1.0" encoding="UTF-8"?>
<svg xmlns="http://www.w3.org/2000/svg" viewBox="0 0 300 420" width="300" height="420">
  <defs>
    <linearGradient id="bg" x1="0" y1="0" x2="0" y2="1">
      <stop offset="0%"   stop-color="#140800"/>
      <stop offset="100%" stop-color="#251200"/>
    </linearGradient>
    <filter id="glow" x="-20%" y="-20%" width="140%" height="140%">
      <feGaussianBlur in="SourceGraphic" stdDeviation="3" result="blur"/>
      <feMerge><feMergeNode in="blur"/><feMergeNode in="SourceGraphic"/></feMerge>
    </filter>
    <filter id="softglow" x="-30%" y="-30%" width="160%" height="160%">
      <feGaussianBlur in="SourceGraphic" stdDeviation="6" result="blur"/>
      <feMerge><feMergeNode in="blur"/><feMergeNode in="SourceGraphic"/></feMerge>
    </filter>
  </defs>

  <!-- Background -->
  <rect width="300" height="420" rx="10" fill="url(#bg)"/>
  <!-- Outer border -->
  <rect x="5" y="5" width="290" height="410" rx="8"
        fill="none" stroke="#664400" stroke-width="1.5"/>
  <!-- Inner accent border -->
  <rect x="11" y="11" width="278" height="398" rx="5"
        fill="none" stroke="#cc7700" stroke-width="0.5" opacity="0.5"/>

  <!-- Header separator -->
  <line x1="18" y1="76" x2="282" y2="76" stroke="#664400" stroke-width="0.8" opacity="0.5"/>
  <!-- Footer separator -->
  <line x1="18" y1="352" x2="282" y2="352" stroke="#664400" stroke-width="0.8" opacity="0.5"/>

  <!-- Card number (top-left) -->
  <text x="24" y="48"
        text-anchor="start" dominant-baseline="middle"
        font-family="'Palatino Linotype',Palatino,'Book Antiqua',Georgia,serif"
        font-size="22" font-weight="300" fill="#ffdd88" opacity="0.9">VI</text>

  <!-- Hebrew letter (top-centre) -->
  <text x="150" y="40"
        text-anchor="middle" dominant-baseline="middle"
        font-family="'Times New Roman','FreeSerif',serif"
        font-size="26" fill="#cc7700" opacity="0.85" filter="url(#glow)">ז</text>

  <!-- Attribution (top-right, small) -->
  <text x="276" y="48"
        text-anchor="end" dominant-baseline="middle"
        font-family="'Segoe UI Symbol','Apple Symbols','DejaVu Sans',sans-serif"
        font-size="11" fill="#886633" opacity="0.8">♊</text>


  
  <defs>
    <linearGradient id="kingSide" x1="0" y1="0" x2="1" y2="0">
      <stop offset="0%"   stop-color="#cc4400" stop-opacity="0.28"/>
      <stop offset="100%" stop-color="#cc4400" stop-opacity="0"/>
    </linearGradient>
    <linearGradient id="queenSide" x1="0" y1="0" x2="1" y2="0">
      <stop offset="0%"   stop-color="#334499" stop-opacity="0"/>
      <stop offset="100%" stop-color="#334499" stop-opacity="0.28"/>
    </linearGradient>
    <linearGradient id="rebisGrad" x1="0" y1="0" x2="1" y2="0">
      <stop offset="0%"   stop-color="#ddaa00"/>
      <stop offset="50%"  stop-color="#ddcc99"/>
      <stop offset="100%" stop-color="#7799cc"/>
    </linearGradient>
  </defs>
  <rect x="13" y="13" width="274" height="394" rx="6" fill="url(#kingSide)"/>
  <rect x="13" y="13" width="274" height="394" rx="6" fill="url(#queenSide)"/>
  
  <text x="152" y="228"
        text-anchor="middle" dominant-baseline="middle"
        font-family="'Times New Roman','FreeSerif',serif"
        font-size="250" fill="#884400" opacity="0.06">ז</text>
  
  <!-- Light source above Eros -->
  <circle cx="150" cy="88" r="24" fill="#ffdd88" opacity="0.12" filter="url(#softglow)"/>
  <circle cx="150" cy="88" r="14" fill="#ffee99" opacity="0.18"/>
  <!-- Wings (left) -->
  <path d="M144,108 C126,94 110,100 118,118"
        fill="#eecc66" opacity="0.62"/>
  <!-- Wings (right) -->
  <path d="M156,108 C174,94 190,100 182,118"
        fill="#eecc66" opacity="0.62"/>
  <!-- Body + head -->
  <ellipse cx="150" cy="118" rx="9" ry="11" fill="#c8a060" opacity="0.85"/>
  <circle  cx="150" cy="104"  r="11" fill="#c8a060" opacity="0.88"/>
  <!-- Blindfold -->
  <rect x="137" y="100" width="26" height="6" rx="3"
        fill="#773311" opacity="0.78"/>
  <!-- Left arm holding bow -->
  <line x1="142" y1="112" x2="128" y2="104"
        stroke="#c8a060" stroke-width="5" stroke-linecap="round" opacity="0.8"/>
  <!-- Right arm drawing string -->
  <line x1="158" y1="112" x2="170" y2="116"
        stroke="#c8a060" stroke-width="5" stroke-linecap="round" opacity="0.8"/>
  <!-- Bow (C-shape, vertical, held left) -->
  <path d="M128,92 C115,102 115,118 128,128"
        fill="none" stroke="#bb9933" stroke-width="2.5" stroke-linecap="round" opacity="0.88"/>
  <!-- Bowstring (drawn back to right hand) -->
  <path d="M128,92 L170,116 L128,128"
        fill="none" stroke="#ddcc66" stroke-width="1" opacity="0.68"/>
  <!-- Arrow shaft pointing toward Rebis -->
  <line x1="128" y1="110" x2="152" y2="224"
        stroke="#ddcc44" stroke-width="1.5" opacity="0.62"/>
  <!-- Arrowhead -->
  <polygon points="152,224 147,216 157,216"
           fill="#ddcc44" opacity="0.65"/>
  
  <!-- King robe (warm orange-gold) -->
  <path d="M50,252 Q48,206 78,200
           Q106,206 106,246 Q78,266 50,252 Z"
        fill="#bb5500" opacity="0.82"/>
  <!-- Chest armour -->
  <rect x="66" y="202" width="24" height="20" rx="3"
        fill="#994400" stroke="#cc6622" stroke-width="1" opacity="0.8"/>
  <!-- Head -->
  <circle cx="78" cy="182" r="14" fill="#c8a060" opacity="0.88"/>
  <!-- Crown band + points -->
  <rect x="64" y="162" width="28" height="8" rx="2"
        fill="#cc7700" stroke="#ffaa22" stroke-width="1" opacity="0.88"/>
  <polygon points="68,153 71,162 65,162"
           fill="#cc7700" opacity="0.85"/>
  <polygon points="78,149 82,162 74,162"
           fill="#dd8800" opacity="0.9"/>
  <polygon points="88,153 91,162 85,162"
           fill="#cc7700" opacity="0.85"/>
  <!-- Solar disk atop crown -->
  <circle cx="78" cy="144" r="7" fill="#ffcc22" opacity="0.9" filter="url(#glow)"/>
  <!-- Right arm reaching toward centre -->
  <line x1="92" y1="204" x2="142" y2="240"
        stroke="#c8a060" stroke-width="7" stroke-linecap="round" opacity="0.78"/>
  <circle cx="142" cy="240" r="5" fill="#c8a060" opacity="0.72"/>
  
  <!-- Queen robe (cool silver-blue, veiled) -->
  <path d="M194,252 Q194,206 222,200
           Q252,206 250,246 Q222,266 194,252 Z"
        fill="#446688" opacity="0.72"/>
  <!-- Veil drape -->
  <path d="M200,182 Q192,216 194,252"
        fill="none" stroke="#8899cc" stroke-width="14" stroke-linecap="round" opacity="0.25"/>
  <!-- Head -->
  <circle cx="222" cy="182" r="14" fill="#c0b8d0" opacity="0.88"/>
  <!-- Crescent crown (two circles for crescent cutout) -->
  <circle cx="222" cy="160" r="10" fill="#8899bb" opacity="0.85"/>
  <circle cx="226.5" cy="160" r="8.5" fill="#1a1000" opacity="0.88"/>
  <!-- Crown band -->
  <rect x="208" y="168" width="28" height="7" rx="2"
        fill="#446688" stroke="#8899cc" stroke-width="1" opacity="0.85"/>
  <!-- Left arm reaching toward centre -->
  <line x1="208" y1="204" x2="158" y2="240"
        stroke="#c0b8d0" stroke-width="7" stroke-linecap="round" opacity="0.78"/>
  <circle cx="158" cy="240" r="5" fill="#c0b8d0" opacity="0.72"/>
  
  <!-- Emergence glow from the union point -->
  <circle cx="150" cy="234" r="26" fill="#ffee88" opacity="0.1" filter="url(#softglow)"/>
  <!-- Joined hands (where King's and Queen's hands meet) -->
  <ellipse cx="147" cy="240" rx="7" ry="5" fill="#c8a060" opacity="0.7"/>
  <ellipse cx="153" cy="240" rx="7" ry="5" fill="#c0b8d0" opacity="0.7"/>
  <!-- Rebis body — dual-toned horizontal gradient -->
  <ellipse cx="150" cy="228" rx="11" ry="13" fill="url(#rebisGrad)" opacity="0.9"/>
  <!-- Rebis head -->
  <circle cx="150" cy="215" r="9" fill="#ddcc99" opacity="0.9"/>
  <!-- Dual crown: solar disk (left) -->
  <circle cx="142" cy="204" r="6" fill="#ffcc22" opacity="0.9" filter="url(#glow)"/>
  <!-- Dual crown: crescent (right) -->
  <circle cx="158"   cy="204" r="6"   fill="#8899bb" opacity="0.85"/>
  <circle cx="161"  cy="204" r="5.2" fill="#1a1000" opacity="0.88"/>
  <!-- Crown band joining both -->
  <rect x="136" y="209" width="28" height="5" rx="2"
        fill="#aa8844" opacity="0.78"/>
  <!-- Arms spread (left gold, right silver — the two natures in one) -->
  <line x1="139" y1="224" x2="126" y2="218"
        stroke="#ddaa22" stroke-width="4" stroke-linecap="round" opacity="0.72"/>
  <line x1="161" y1="224" x2="174" y2="218"
        stroke="#8899bb" stroke-width="4" stroke-linecap="round" opacity="0.72"/>
  <!-- Zain — the sword as the vertical axis through the Rebis, dividing and uniting -->
  <line x1="150" y1="196" x2="150" y2="244"
        stroke="#ffffff" stroke-width="0.8" stroke-dasharray="2 4" opacity="0.32"/>
  
  <!-- Altar plinth -->
  <rect x="123" y="292" width="54" height="18" rx="2"
        fill="#1c0e00" stroke="#443322" stroke-width="1" opacity="0.92"/>
  <rect x="119" y="288" width="62" height="6" rx="1.5"
        fill="#241200" stroke="#554433" stroke-width="1" opacity="0.88"/>
  <!-- Caduceus on altar face (intertwined serpents = union of opposites) -->
  <line x1="150" y1="292" x2="150" y2="308"
        stroke="#aa8833" stroke-width="1.5" opacity="0.65"/>
  <path d="M150,294 C143,299 143,304 150,307"
        fill="none" stroke="#aa8833" stroke-width="1.3" opacity="0.6"/>
  <path d="M150,294 C157,299 157,304 150,307"
        fill="none" stroke="#aa8833" stroke-width="1.3" opacity="0.6"/>
  
  <path d="M18,318 Q80,312 150,316 Q220,312 282,318 L282,352 L18,352 Z"
        fill="#0d0800" opacity="0.65"/>
  <!-- Gemini glyphs in floor, one each side — the duality at rest -->
  <text x="68"  y="336" text-anchor="middle" dominant-baseline="middle"
        font-family="'Segoe UI Symbol','Apple Symbols',sans-serif"
        font-size="15" fill="#cc5500" opacity="0.38">♊</text>
  <text x="232" y="336" text-anchor="middle" dominant-baseline="middle"
        font-family="'Segoe UI Symbol','Apple Symbols',sans-serif"
        font-size="15" fill="#446688" opacity="0.38">♊</text>

  <!-- Card title -->
  <text x="150" y="374"
        text-anchor="middle" dominant-baseline="middle"
        font-family="'Palatino Linotype',Palatino,'Book Antiqua',Georgia,serif"
        font-size="17" fill="#ffdd88" letter-spacing="2.5"
        filter="url(#glow)">The Lovers</text>

  <!-- Hebrew name / path -->
  <text x="150" y="396"
        text-anchor="middle" dominant-baseline="middle"
        font-family="'Palatino Linotype',Palatino,'Book Antiqua',Georgia,serif"
        font-size="9" fill="#886633" letter-spacing="3" opacity="0.75">Zain · Gemini · Path 17</text>
</svg>